<svg viewBox="0 0 258 203" fill="none" xmlns="http://www.w3.org/2000/svg">
<g filter="url(#filter0_d_402_140)">
<path d="M253.565 47.4051V176.6C253.565 182.562 249.559 187.491 244.516 187.614L202.519 188.646L72.9924 191.85C67.7217 191.974 62.8167 187.645 62.2379 181.93C62.1922 181.499 61.6133 181.052 61.6133 180.605V42.9687C61.6133 40.6426 62.8015 38.5015 63.8678 36.73C63.8982 36.6838 64.2029 36.6375 64.2334 36.5913C66.0918 33.5875 69.3517 31.6774 72.8705 31.7698L92.5211 32.2936L244.486 36.3757C249.528 36.5143 253.565 41.4437 253.565 47.4051Z" fill="white"/>
<path d="M73.0076 188.2C69.1536 188.292 66.0156 184.857 66.0156 180.544V43.0613C66.0156 38.7481 69.1536 35.3284 73.0076 35.4208L244.577 39.8264C248.005 39.9188 250.792 43.2769 250.792 47.3436V176.662C250.792 180.713 248.005 184.071 244.577 184.164L73.0076 188.2Z" fill="url(#paint0_linear_402_140)"/>
<path d="M244.593 36.3759L73.0229 31.7701C67.3562 31.616 62.7559 36.6378 62.7559 42.9843V51.2256L253.717 55.1382V47.4053C253.702 41.4439 249.62 36.5146 244.593 36.3759Z" fill="#D8DEE8"/>
<path d="M81.0203 41.9829C81.0203 43.8776 79.5275 45.3719 77.6843 45.3256C75.8411 45.2794 74.333 43.7082 74.333 41.8135C74.333 39.9188 75.8258 38.4246 77.6843 38.4708C79.5275 38.5324 81.0203 40.1036 81.0203 41.9829Z" fill="white"/>
<path d="M92.6889 42.2599C92.6889 44.1392 91.2113 45.6334 89.3833 45.6026C87.5553 45.5564 86.0625 44.0006 86.0625 42.1059C86.0625 40.2112 87.5553 38.7324 89.3833 38.7632C91.196 38.8094 92.6889 40.3806 92.6889 42.2599Z" fill="white"/>
<path d="M104.266 42.5371C104.266 44.4164 102.789 45.8952 100.976 45.8644C99.1632 45.8182 97.6855 44.2624 97.6855 42.383C97.6855 40.5037 99.1632 39.0095 100.976 39.0557C102.789 39.1019 104.266 40.6578 104.266 42.5371Z" fill="white"/>
<path d="M243.069 176.878L74.7139 180.421V72.1445L243.069 74.4706V176.878Z" fill="#D8DEE8"/>
<g opacity="0.5">
<path d="M164.726 62.5009L74.7139 60.9297V66.7833L164.726 68.1851V62.5009Z" fill="white"/>
<path d="M233.351 63.7021V69.2477L243.069 69.4017V63.8716L233.351 63.7021Z" fill="white"/>
</g>
<g opacity="0.5">
<path d="M203.615 188.646L74.0736 191.85C68.803 191.973 63.8675 187.645 63.2734 181.93C63.2734 181.807 62.6641 181.683 62.6641 181.56V42.9069C62.6641 40.6117 63.8522 38.5013 64.8881 36.7298C64.9185 36.6836 65.2384 36.6374 65.2689 36.5912C67.1121 33.5104 70.4177 31.5386 73.9822 31.631L93.5262 32.1548C93.5414 32.201 93.5871 32.2472 93.6024 32.2934C93.968 33.495 94.3793 34.7119 94.821 35.9596C96.5576 40.8736 98.873 46.0186 101.981 51.102C102.163 51.41 102.361 51.7181 102.559 52.0262C104.844 55.6462 107.282 58.7732 109.81 61.5152C111.836 63.7026 113.938 65.6589 116.086 67.3996C118.6 69.4484 121.205 71.2199 123.84 72.8065C142.866 84.221 164.223 85.7152 178.39 108.59C190.53 128.2 181.832 138.49 193.577 168.497C194.856 171.763 196.227 174.875 197.675 177.863C198.908 180.405 200.203 182.854 201.559 185.211C202.244 186.366 202.93 187.522 203.615 188.646Z" fill="white"/>
</g>
<path d="M135.067 175.83C105.835 171.27 99.3305 167.912 96.3143 161.643C91.9272 152.523 95.1109 137.658 102.621 128.524C109.171 120.529 117.321 118.988 117.092 113.458C116.894 108.914 111.319 108.298 107.206 99.7177C106.003 97.2068 103.672 92.3391 104.693 86.5009C106.185 77.967 113.741 73.5768 114.365 73.2379C122.256 68.8323 126.735 74.1005 132.645 70.1416C140.018 65.2123 136.682 54.5372 143.582 51.595C148.594 49.4692 154.977 53.1354 156.637 54.0904C162.182 57.2791 161.588 60.3754 166.264 62.3625C171.733 64.6885 174.338 61.1918 180.66 62.7168C185.869 63.9799 189.632 67.8618 192.694 71.7591C199.564 80.4932 196.152 85.5766 201.224 96.2826C208.338 111.302 219.047 109.638 220.951 121.607C221.941 127.861 219.397 130.711 221.347 140.292C222.672 146.762 224.318 147.917 224.622 151.707C225.46 162.644 213.243 172.379 210.958 174.089C196.319 185.103 175.937 182.192 135.067 175.83Z" fill="url(#paint1_linear_402_140)"/>
<path opacity="0.7" d="M181.559 146.238C162.426 144.883 149.402 163.352 144.207 158.824C139.287 154.526 153.164 139.799 148.427 122.701C143.765 105.879 125.41 102.259 126.872 92.755C128.517 82.0029 153.057 79.5382 152.479 71.6512C152.144 66.9992 143.491 65.8593 141.755 58.4344C141.282 56.4165 141.435 54.4293 141.937 52.5654C137.169 56.4011 139.333 65.659 132.615 70.157C126.704 74.1159 122.226 68.8477 114.335 73.2533C113.726 73.5922 106.155 77.9824 104.662 86.5163C103.642 92.3545 105.972 97.2222 107.176 99.7331C111.288 108.313 116.864 108.929 117.062 113.474C117.306 119.004 109.141 120.56 102.59 128.539C95.0958 137.674 91.8968 152.523 96.284 161.658C99.3001 167.927 105.805 171.286 135.037 175.845C175.892 182.207 196.274 185.119 210.897 174.135C216.534 169.899 223.175 162.721 224.592 156.374C221.759 159.101 218.971 160.441 216.366 160.949C204.256 163.368 198.62 147.44 181.559 146.238Z" fill="url(#paint2_linear_402_140)"/>
<path d="M102.469 182.792C98.0359 171.562 100.732 182.176 101.311 178.433C103.535 163.861 108.76 154.818 110.664 151.599C123.673 129.648 143.339 129.802 158.1 129.925C165.366 129.987 172.891 129.817 182.061 133.237C182.061 133.237 189.297 135.933 195.406 140.446C213.594 153.863 227.898 169.437 213.274 186.304C203.936 197.087 194.324 183.67 152.372 190.864C135.403 193.775 117.443 198.52 106.734 189.139C104.952 187.598 103.55 185.519 102.469 182.792Z" fill="url(#paint3_linear_402_140)"/>
<path d="M150.361 108.175C150.361 108.175 153.469 131.712 137.672 136.411C135.844 136.95 135.281 139.399 136.667 140.755L156.15 159.902C157.323 161.057 159.166 160.965 160.248 159.686L177.705 139.137C178.847 137.797 178.344 135.671 176.745 135.04C171.154 132.868 161.116 126.521 163.233 109.361L150.361 108.175Z" fill="url(#paint4_linear_402_140)"/>
<path d="M140.673 95.0344C140.673 95.2962 144.938 118.326 155.845 118.356C166.112 118.387 169.997 101.581 171.261 93.7404C171.398 92.4002 171.535 91.0755 171.657 89.7353C170.956 89.9664 169.235 90.4439 167.178 89.8277C166.706 89.6891 163.736 88.7957 162.624 86.1923C161.39 83.281 163.66 81.0165 162.365 78.4594C161.618 76.9806 160.11 76.272 158.953 75.9023C159.714 77.1039 161.207 79.7688 160.369 82.1719C159.806 83.7893 158.221 85.3143 154.687 86.2232C144.542 88.8265 140.566 89.8123 140.673 95.0344Z" fill="url(#paint5_linear_402_140)"/>
<path d="M143.339 97.8079C143.339 97.8079 137.687 92.7399 137.2 95.8054C136.164 102.214 141.008 105.787 143.628 103.893C146.248 101.998 143.339 97.8079 143.339 97.8079Z" fill="url(#paint6_linear_402_140)"/>
<path d="M168.047 98.008C168.047 98.008 173.607 93.0786 174.079 96.1287C175.084 102.491 170.347 105.957 167.757 104.046C165.183 102.121 168.047 98.008 168.047 98.008Z" fill="url(#paint7_linear_402_140)"/>
<path d="M139.439 167.264C139.439 170.622 136.85 173.38 133.635 173.426C130.421 173.472 127.816 170.761 127.816 167.388C127.816 164.014 130.421 161.257 133.635 161.226C136.85 161.195 139.439 163.891 139.439 167.264Z" fill="white"/>
<path d="M166.402 166.956C166.402 170.299 163.843 173.026 160.69 173.072C157.521 173.118 154.962 170.438 154.962 167.08C154.962 163.737 157.536 160.995 160.69 160.964C163.843 160.933 166.402 163.614 166.402 166.956Z" fill="white"/>
<path d="M192.937 166.648C192.937 169.96 190.424 172.671 187.316 172.718C184.194 172.764 181.665 170.099 181.665 166.772C181.665 163.444 184.194 160.733 187.316 160.702C190.424 160.672 192.937 163.337 192.937 166.648Z" fill="white"/>
<path d="M97.1435 58.3049C101.729 52.4975 104.364 45.6889 104.364 38.3873C104.364 17.1911 82.0323 0 54.5062 0C26.9801 0 4.64844 17.1911 4.64844 38.3873C4.64844 59.5834 26.9801 76.7745 54.5062 76.7745C64.8342 76.7745 74.4158 74.3561 82.3674 70.2278C87.6228 71.1366 95.7877 72.6616 100.099 73.4626C101.363 73.6937 102.399 72.446 101.957 71.229L97.1435 58.3049Z" fill="url(#paint8_linear_402_140)"/>
<g opacity="0.3">
<path d="M81.7882 46.5054C70.6071 41.7455 58.3141 51.789 50.6214 44.7801C42.8677 37.725 51.2459 23.7842 43.8274 13.8331C40.2934 9.08856 34.3372 6.85495 27.5433 6.06934C13.7574 12.8934 4.63281 24.8162 4.63281 38.3719C4.63281 59.5681 26.9645 76.7592 54.4906 76.7592C64.8186 76.7592 74.4001 74.3407 82.3518 70.2124C86.4952 70.921 92.4513 72.0301 96.8993 72.862C93.6395 55.6863 87.6072 48.9854 81.7882 46.5054Z" fill="url(#paint9_linear_402_140)"/>
</g>
<path d="M87.5766 24.354C87.5766 25.4169 86.7235 26.2949 85.6572 26.2949H25.0297C23.9786 26.2949 23.1104 25.4323 23.1104 24.354C23.1104 23.2911 23.9634 22.4131 25.0297 22.4131H85.642C86.7083 22.4131 87.5766 23.2911 87.5766 24.354Z" fill="white"/>
<path d="M87.5766 35.9692C87.5766 37.0321 86.7235 37.9102 85.6572 37.9102H25.0297C23.9786 37.9102 23.1104 37.0475 23.1104 35.9692C23.1104 34.9064 23.9634 34.0283 25.0297 34.0283H85.642C86.7083 34.0283 87.5766 34.9064 87.5766 35.9692Z" fill="white"/>
<path d="M58.8623 47.5845C58.8623 48.6474 58.0093 49.5254 56.9429 49.5254H25.0297C23.9786 49.5254 23.1104 48.6628 23.1104 47.5845C23.1104 46.5216 23.9634 45.6436 25.0297 45.6436H56.9277C57.994 45.6436 58.8623 46.5216 58.8623 47.5845Z" fill="white"/>
</g>
<defs>
<filter id="filter0_d_402_140" x="0.632812" y="0" width="257.085" height="202.677" filterUnits="userSpaceOnUse" color-interpolation-filters="sRGB">
<feFlood flood-opacity="0" result="BackgroundImageFix"/>
<feColorMatrix in="SourceAlpha" type="matrix" values="0 0 0 0 0 0 0 0 0 0 0 0 0 0 0 0 0 0 127 0" result="hardAlpha"/>
<feOffset dy="4"/>
<feGaussianBlur stdDeviation="2"/>
<feComposite in2="hardAlpha" operator="out"/>
<feColorMatrix type="matrix" values="0 0 0 0 0 0 0 0 0 0 0 0 0 0 0 0 0 0 0.25 0"/>
<feBlend mode="normal" in2="BackgroundImageFix" result="effect1_dropShadow_402_140"/>
<feBlend mode="normal" in="SourceGraphic" in2="effect1_dropShadow_402_140" result="shape"/>
</filter>
<linearGradient id="paint0_linear_402_140" x1="66.0242" y1="111.813" x2="250.795" y2="111.813" gradientUnits="userSpaceOnUse">
<stop stop-color="white"/>
<stop offset="0.9964" stop-color="#EBEFF2"/>
</linearGradient>
<linearGradient id="paint1_linear_402_140" x1="203.885" y1="43.1304" x2="167.768" y2="113.074" gradientUnits="userSpaceOnUse">
<stop stop-color="#22161C"/>
<stop offset="1" stop-color="#48232B"/>
</linearGradient>
<linearGradient id="paint2_linear_402_140" x1="204.732" y1="41.7791" x2="168.25" y2="112.429" gradientUnits="userSpaceOnUse">
<stop stop-color="#34232C"/>
<stop offset="1" stop-color="#341E22"/>
</linearGradient>
<linearGradient id="paint3_linear_402_140" x1="169.078" y1="268.794" x2="151.689" y2="144.13" gradientUnits="userSpaceOnUse">
<stop offset="0.00359712" stop-color="#84CA55"/>
<stop offset="1" stop-color="#4F9422"/>
</linearGradient>
<linearGradient id="paint4_linear_402_140" x1="158.231" y1="163.152" x2="155.685" y2="108.516" gradientUnits="userSpaceOnUse">
<stop stop-color="#FFC444"/>
<stop offset="0.9964" stop-color="#F36F56"/>
</linearGradient>
<linearGradient id="paint5_linear_402_140" x1="155.572" y1="115.109" x2="156.547" y2="78.1811" gradientUnits="userSpaceOnUse">
<stop stop-color="#FFC444"/>
<stop offset="0.9964" stop-color="#F36F56"/>
</linearGradient>
<linearGradient id="paint6_linear_402_140" x1="140.59" y1="111.23" x2="141.489" y2="77.2184" gradientUnits="userSpaceOnUse">
<stop stop-color="#FFC444"/>
<stop offset="0.9964" stop-color="#F36F56"/>
</linearGradient>
<linearGradient id="paint7_linear_402_140" x1="170.138" y1="112.101" x2="171.022" y2="78.6231" gradientUnits="userSpaceOnUse">
<stop stop-color="#FFC444"/>
<stop offset="0.9964" stop-color="#F36F56"/>
</linearGradient>
<linearGradient id="paint8_linear_402_140" x1="4.63668" y1="38.3847" x2="104.365" y2="38.3847" gradientUnits="userSpaceOnUse">
<stop stop-color="#69B033"/>
<stop offset="0.9964" stop-color="#91D665"/>
</linearGradient>
<linearGradient id="paint9_linear_402_140" x1="17.7997" y1="11.8559" x2="105.573" y2="126.167" gradientUnits="userSpaceOnUse">
<stop stop-color="#3E7522"/>
<stop offset="0.9964" stop-color="#65AC33"/>
</linearGradient>
</defs>
</svg>

