<svg width="561" height="387" viewBox="0 0 561 387" fill="none" xmlns="http://www.w3.org/2000/svg">
<path d="M369.625 314.011C369.625 314.011 442.917 218.403 561 273.231C561 273.231 505.352 374.729 382.293 323.527L369.625 314.011Z" fill="url(#paint0_linear_81_315)"/>
<path d="M560.547 273.684L369.172 314.464L387.269 322.167C387.721 322.167 491.779 366.12 560.547 273.684Z" fill="#94C995"/>
<path d="M169.206 318.089C169.206 318.089 42.9802 286.371 0 131.404C0 131.404 113.558 101.952 197.709 277.308L169.206 318.089Z" fill="url(#paint1_linear_81_315)"/>
<path d="M9.95312 139.107L179.159 298.605L147.49 302.683C147.037 303.136 36.1936 264.621 9.95312 139.107Z" fill="#F1F9FF" fill-opacity="0.49"/>
<path d="M399.945 277.761C399.945 277.761 428.9 179.887 514.861 190.309C514.861 189.856 504.455 289.542 399.945 277.761Z" fill="url(#paint2_radial_81_315)"/>
<path d="M514.855 189.855L403.559 270.964C404.011 270.964 485.9 295.432 514.855 189.855Z" fill="#BDE0FF"/>
<path d="M281.404 86.5449C198.611 86.5449 131.652 153.606 131.652 236.527C131.652 319.448 198.611 386.509 281.404 386.509C364.198 386.509 431.156 319.448 431.156 236.527C431.609 153.606 364.198 86.5449 281.404 86.5449ZM281.404 331.682C228.923 331.682 186.396 289.089 186.396 236.527C186.396 183.965 228.923 141.372 281.404 141.372C333.885 141.372 376.413 183.965 376.413 236.527C376.866 289.089 333.885 331.682 281.404 331.682Z" fill="url(#paint3_linear_81_315)"/>
<path d="M135.27 149.982C135.27 149.982 107.672 216.591 140.246 285.918C140.246 285.918 193.18 384.244 281.855 386.963C370.53 389.229 423.463 285.918 423.463 285.918C423.463 285.918 454.68 208.888 424.82 141.373L380.935 142.279C380.935 142.279 405.366 342.104 281.855 332.136C158.796 322.167 169.654 183.06 169.654 183.06L135.27 149.982Z" fill="url(#paint4_linear_81_315)"/>
<path d="M281.403 47.124C195.443 47.124 125.77 116.904 125.77 202.997C125.77 289.089 195.443 358.869 281.403 358.869C367.363 358.869 437.036 289.089 437.036 202.997C437.036 116.904 367.363 47.124 281.403 47.124ZM281.403 307.214C223.945 307.214 177.346 260.543 177.346 202.997C177.346 145.451 223.945 98.7795 281.403 98.7795C338.861 98.7795 385.46 145.451 385.46 202.997C385.46 260.543 338.861 307.214 281.403 307.214Z" fill="url(#paint5_radial_81_315)"/>
<path d="M432.965 166.294C423.011 124.607 395.866 89.264 359.672 68.4206C336.598 54.827 309.906 47.124 281.403 47.124C195.443 47.124 125.77 116.904 125.77 202.997C125.77 219.762 128.484 236.074 133.461 251.48C147.033 292.261 176.441 325.792 214.897 343.916C235.256 353.432 257.425 358.869 281.403 358.869C367.363 358.869 437.036 289.089 437.036 202.997C437.036 190.309 435.679 178.075 432.965 166.294ZM281.403 307.214C274.617 307.214 268.283 306.761 261.949 305.401C217.611 297.245 183.227 260.543 177.798 215.231C177.346 211.153 176.893 207.075 176.893 202.997C176.893 145.451 223.493 98.7795 280.951 98.7795C292.713 98.7795 304.024 100.592 314.43 104.217C355.6 118.264 385.008 157.232 385.008 202.997C385.008 203.45 385.008 203.903 385.008 204.809C384.555 261.449 338.408 307.214 281.403 307.214Z" fill="url(#paint6_radial_81_315)"/>
<path d="M281.405 98.7793C223.947 98.7793 177.348 145.45 177.348 202.996C177.348 260.543 223.947 307.214 281.405 307.214C338.863 307.214 385.462 260.543 385.462 202.996C385.462 145.45 338.863 98.7793 281.405 98.7793ZM281.405 302.229C226.662 302.229 182.324 257.824 182.324 202.996C182.324 148.169 226.662 103.764 281.405 103.764C336.148 103.764 380.485 148.169 380.485 202.996C380.485 257.824 336.148 302.229 281.405 302.229Z" fill="url(#paint7_linear_81_315)"/>
<path opacity="0.5" d="M262.402 305.401L215.35 343.916C176.894 325.791 147.034 292.261 133.914 251.48L178.252 215.23C183.228 260.542 218.065 297.245 262.402 305.401Z" fill="white"/>
<path opacity="0.5" d="M385.461 204.81C385.461 204.356 385.461 203.903 385.461 202.997C385.461 157.232 356.053 118.264 314.883 104.217L359.22 67.9678C395.414 88.8112 422.107 124.154 432.513 165.841L385.461 204.81Z" fill="white"/>
<path d="M230.727 350.26C230.727 350.26 304.019 372.01 385.908 318.542C385.455 318.995 332.069 379.713 230.727 350.26Z" fill="url(#paint8_radial_81_315)"/>
<path opacity="0.5" d="M215.349 343.917L223.493 374.729C223.493 374.729 162.416 355.245 135.723 275.496L133.461 251.027C133.461 251.48 151.105 313.105 215.349 343.917Z" fill="white"/>
<path d="M489.977 137.294L522.551 86.998L539.743 99.2323L505.359 145.903L489.977 137.294Z" fill="#E88A01"/>
<path d="M114.012 48.4838L164.683 8.60938L176.898 25.8278L130.751 62.5304L114.012 48.4838Z" fill="#E88A01"/>
<path d="M85.0573 299.965L47.9586 318.542L38.9102 299.965L76.4613 277.762L85.0573 299.965Z" fill="#3E8F35"/>
<path d="M332.98 10.4217L359.221 39.4213L369.627 27.6402L344.743 0L332.98 10.4217Z" fill="#3EA632"/>
<path d="M170.562 179.434L204.494 120.982L277.787 179.434C277.787 179.434 361.033 94.7008 427.086 72.9512L445.635 148.169C445.635 148.169 362.39 168.559 284.573 264.167L170.562 179.434Z" fill="url(#paint9_linear_81_315)"/>
<path d="M170.562 206.168L204.494 147.716L277.787 206.168C277.787 206.168 361.033 121.435 427.086 99.6855L445.635 174.903C445.635 174.903 362.39 195.294 284.573 290.901L170.562 206.168Z" fill="url(#paint10_linear_81_315)"/>
<path d="M427.086 72.9512V99.6852L445.183 175.356V140.919L427.086 72.9512Z" fill="#CD4A00"/>
<path d="M204.494 120.528V147.715L170.562 206.168V179.434L204.494 120.528Z" fill="#CD4A00"/>
<path d="M427.085 72.9512V100.138C407.63 106.935 387.271 118.263 368.27 131.403C318.956 164.481 277.785 206.621 277.785 206.621V179.434C302.216 154.966 324.385 135.935 343.839 120.982C362.841 106.935 378.675 96.5133 391.796 89.2634C414.417 76.5761 427.085 72.9512 427.085 72.9512Z" fill="white"/>
<path d="M399.939 111.466L368.269 130.951L357.863 111.013C379.127 96.5136 379.127 96.5136 392.247 89.2637L399.939 111.466Z" fill="white"/>
<defs>
<linearGradient id="paint0_linear_81_315" x1="410.744" y1="255.752" x2="519.265" y2="332.584" gradientUnits="userSpaceOnUse">
<stop stop-color="#175610"/>
<stop offset="1" stop-color="#3E8F35"/>
</linearGradient>
<linearGradient id="paint1_linear_81_315" x1="129.252" y1="328.06" x2="76.3176" y2="112.949" gradientUnits="userSpaceOnUse">
<stop stop-color="#2E7826"/>
<stop offset="1" stop-color="#1BA60B"/>
</linearGradient>
<radialGradient id="paint2_radial_81_315" cx="0" cy="0" r="1" gradientUnits="userSpaceOnUse" gradientTransform="translate(466.328 205.249) rotate(156.903) scale(54.626 54.6841)">
<stop stop-color="#3E8F35"/>
<stop offset="1" stop-color="#1A5513"/>
</radialGradient>
<linearGradient id="paint3_linear_81_315" x1="131.651" y1="236.441" x2="431.395" y2="236.441" gradientUnits="userSpaceOnUse">
<stop stop-color="#A59400"/>
<stop offset="1" stop-color="#E6C100"/>
</linearGradient>
<linearGradient id="paint4_linear_81_315" x1="124.199" y1="263.832" x2="437.319" y2="263.832" gradientUnits="userSpaceOnUse">
<stop stop-color="#BEAE1D"/>
<stop offset="1" stop-color="#DFCB01"/>
</linearGradient>
<radialGradient id="paint5_radial_81_315" cx="0" cy="0" r="1" gradientUnits="userSpaceOnUse" gradientTransform="translate(347.236 63.4453) scale(155.692 155.932)">
<stop stop-color="#39AEF7"/>
<stop offset="1" stop-color="#6840D5"/>
</radialGradient>
<radialGradient id="paint6_radial_81_315" cx="0" cy="0" r="1" gradientUnits="userSpaceOnUse" gradientTransform="translate(292.945 74.5046) scale(222.179 222.52)">
<stop stop-color="#F7EF39"/>
<stop offset="1" stop-color="#D5BD40"/>
</radialGradient>
<linearGradient id="paint7_linear_81_315" x1="281.517" y1="307.327" x2="281.517" y2="98.6465" gradientUnits="userSpaceOnUse">
<stop stop-color="#FBE824"/>
<stop offset="1" stop-color="#FFF509"/>
</linearGradient>
<radialGradient id="paint8_radial_81_315" cx="0" cy="0" r="1" gradientUnits="userSpaceOnUse" gradientTransform="translate(313.869 322.363) scale(56.0244 56.1105)">
<stop stop-color="#FDF53F"/>
<stop offset="1" stop-color="#FFF853" stop-opacity="0.33"/>
</radialGradient>
<linearGradient id="paint9_linear_81_315" x1="307.947" y1="264.012" x2="307.947" y2="72.7618" gradientUnits="userSpaceOnUse">
<stop stop-color="#FFAB2D"/>
<stop offset="1" stop-color="#F73D24"/>
</linearGradient>
<linearGradient id="paint10_linear_81_315" x1="307.947" y1="291.019" x2="307.947" y2="99.768" gradientUnits="userSpaceOnUse">
<stop stop-color="#F4A32A"/>
<stop offset="1" stop-color="#BC4F00"/>
</linearGradient>
</defs>
</svg>
